#!OML:ASF H:\BabyWalks\Project 1\Capture day 1\Session 1\baby.ASF
:FULLY-SPECIFIED
:DEGREES
1297
root -18.1184 17.4862 -2.96044 -415.058 83.0441 -425.99
lowerback 18.4563 2.62257 3.13186
upperback 0.686921 4.20801 0.150499
thorax -9.39162 1.89981 -2.71108
lowerneck 3.2807 -1.53321 6.75967
upperneck -21.4502 -1.34189 -2.59187
head -7.16751 -0.715193 -1.91905
rclavicle 4.35338e-014 2.38542e-014
rhumerus -49.1721 23.8474 -87.3132
rradius 71.4541
rwrist -7.13673
rhand -20.1976 -5.56443
rfingers 7.12502
rthumb 6.14906 -35.4552
lclavicle 4.35338e-014 2.38542e-014
lhumerus -78.2802 -26.2537 92.1306
lradius 51.8695
lwrist 4.73611
lhand 24.0486 19.5036
lfingers 7.12502
lthumb 48.2863 41.5817
rfemur 6.85883 14.5036 27.5108
rtibia 18.739
rfoot -3.86009 18.0277
rtoes -10.1266
lfemur -36.7256 -4.60361 -7.75438
ltibia 39.1224
lfoot -20.2064 -6.42389
ltoes -11.9036
1298
root -17.9701 17.4666 -2.95082 -412.302 83.2794 -423.127
lowerback 18.5335 2.61942 2.22488
upperback 0.754129 3.98256 -0.166322
thorax -9.41157 1.82475 -2.48838
lowerneck 3.47705 -1.54177 6.54202
upperneck -21.8069 -1.24099 -2.04705
head -7.31251 -0.693135 -1.71443
rclavicle 1.05356e-014 -8.74653e-015
rhumerus -48.7057 23.768 -87.612
rradius 70.8352
rwrist -6.93085
rhand -20.401 -6.04113
rfingers 7.12502
rthumb 5.95269 -35.9375
lclavicle 1.05356e-014 -8.74653e-015
lhumerus -77.2125 -26.1031 91.6753
lradius 51.3196
lwrist 4.08208
lhand 23.0135 18.6146
lfingers 7.12502
lthumb 47.3313 41.1335
rfemur 5.65592 14.4225 26.914
rtibia 21.9062
rfoot -4.41721 18.3933
rtoes -12.3813
lfemur -36.3561 -4.18733 -8.39063
ltibia 39.6985
lfoot -19.9569 -7.06226
ltoes -9.61972
1299
root -17.8242 17.4489 -2.93764 -409.213 83.6505 -419.947
lowerback 18.6188 2.60648 1.22786
upperback 0.819285 3.72349 -0.511136
thorax -9.43959 1.73725 -2.23581
lowerneck 3.65348 -1.55425 6.31608
upperneck -22.1565 -1.15095 -1.53302
head -7.45315 -0.673843 -1.51713
rclavicle -7.11649e-014 -3.97569e-015
rhumerus -48.2997 23.5423 -87.9258
rradius 70.1597
rwrist -6.65358
rhand -20.7273 -6.64998
rfingers 7.12502
rthumb 5.63761 -36.555
lclavicle -7.11649e-014 -3.97569e-015
lhumerus -75.9499 -26.0409 91.2448
lradius 50.6366
lwrist 3.33249
lhand 21.9919 17.6568
lfingers 7.12502
lthumb 46.3859 40.5889
rfemur 4.37397 14.2572 26.16
rtibia 25.0797
rfoot -5.28766 18.4942
rtoes -14.6745
lfemur -35.994 -3.81737 -9.16875
ltibia 40.1959
lfoot -19.9726 -7.63588
ltoes -7.67116
1300
root -17.68 17.4329 -2.92153 -406.076 84.0955 -416.746
lowerback 18.706 2.58064 0.2424
upperback 0.874742 3.44943 -0.867847
thorax -9.47328 1.64234 -1.99801
lowerneck 3.80842 -1.57685 6.09956
upperneck -22.4749 -1.08277 -1.06067
head -7.58161 -0.662972 -1.33263
rclavicle 2.68359e-014 -6.36111e-015
rhumerus -47.9844 23.1612 -88.2549
rradius 69.4377
rwrist -6.31395
rhand -21.1679 -7.33814
rfingers 7.12502
rthumb 5.21219 -37.254
lclavicle 2.68359e-014 -6.36111e-015
lhumerus -74.4948 -26.0732 90.8027
lradius 49.8354
lwrist 2.46381
lhand 21.0065 16.6301
lfingers 7.12502
lthumb 45.4715 39.9415
rfemur 3.04411 13.9732 25.3329
rtibia 28.1724
rfoot -6.49445 18.2949
rtoes -16.9381
lfemur -35.6456 -3.51887 -9.99033
ltibia 40.613
lfoot -20.1756 -8.16824
ltoes -6.30005
1301
root -17.5365 17.4189 -2.90372 -403.219 84.55 -413.849
lowerback 18.7871 2.53016 -0.654039
upperback 0.927728 3.16426 -1.2054
thorax -9.49734 1.5396 -1.7856
lowerneck 3.90997 -1.59495 5.87162
upperneck -22.7376 -1.02191 -0.628962
head -7.68271 -0.651399 -1.15826
rclavicle 1.63003e-014 -2.3059e-014
rhumerus -47.7447 22.691 -88.5877
rradius 68.6646
rwrist -5.92092
rhand -21.7084 -8.06252
rfingers 7.12502
rthumb 4.6903 -37.9906
lclavicle 1.63003e-014 -2.3059e-014
lhumerus -72.8217 -26.1177 90.2878
lradius 48.9273
lwrist 1.43053
lhand 20.0436 15.5068
lfingers 7.12502
lthumb 44.5757 39.1716
rfemur 1.70094 13.5805 24.5186
rtibia 31.1023
rfoot -8.04183 17.761
rtoes -19.2517
lfemur -35.3002 -3.28823 -10.7657
ltibia 40.9595
lfoot -20.4426 -8.65178
ltoes -5.12074
1302
root -17.3937 17.4073 -2.88532 -401.151 84.9764 -411.773
lowerback 18.8607 2.45606 -1.38518
upperback 0.968319 2.88554 -1.51719
thorax -9.51882 1.43374 -1.63979
lowerneck 3.97477 -1.61738 5.67043
upperneck -22.9456 -0.978376 -0.248166
head -7.76031 -0.646031 -1.0032
rclavicle -5.32743e-014 4.77083e-015
rhumerus -47.5853 22.1102 -88.9255
rradius 67.833
rwrist -5.4639
rhand -22.2947 -8.78431
rfingers 7.12502
rthumb 4.12421 -38.7241
lclavicle -5.32743e-014 4.77083e-015
lhumerus -70.941 -26.1554 89.6515
lradius 47.9397
lwrist 0.21671
lhand 19.0828 14.3241
lfingers 7.12502
lthumb 43.6797 38.3254
rfemur 0.348225 13.0656 23.7784
rtibia 33.8088
rfoot -9.68636 16.9977
rtoes -21.132
lfemur -34.9705 -3.1287 -11.4244
ltibia 41.2473
lfoot -20.7726 -9.09955
ltoes -4.16928
